<svg viewBox="0 0 26 32" xmlns="http://www.w3.org/2000/svg">
    <path fill-rule="evenodd"
          d="M23 8H3c-.56 0-1-.45-1-1 0-.56.44-1 1-1h20c.55 0 1 .44 1 1 0 .55-.45 1-1 1Zm-1 20c0 1.1-.9 2-2 2H6a2 2 0 0 1-2-2V10h18v18ZM10 3c0-.56.44-1 1-1h4c.55 0 1 .44 1 1v1h-6V3Zm14 1h-6V2a2 2 0 0 0-2-2h-6C8.89 0 8 .89 8 2v2H2C.89 4 0 4.89 0 6v2a2 2 0 0 0 2 2v18c0 2.2 1.79 4 4 4h14c2.2 0 4-1.8 4-4V10c1.1 0 2-.9 2-2V6a2 2 0 0 0-2-2ZM13 28c.55 0 1-.45 1-1V15c0-.56-.45-1-1-1-.56 0-1 .44-1 1v12c0 .55.44 1 1 1Zm-5 0c.55 0 1-.45 1-1V15c0-.56-.45-1-1-1-.56 0-1 .44-1 1v12c0 .55.44 1 1 1Zm10 0c.55 0 1-.45 1-1V15c0-.56-.45-1-1-1-.56 0-1 .44-1 1v12c0 .55.44 1 1 1Z"/>
</svg>