<svg viewBox="0 0 2921 2917" xmlns="http://www.w3.org/2000/svg" fill-rule="evenodd" clip-rule="evenodd"
     stroke-linejoin="round" stroke-miterlimit="2">
    <g>
        <path fill="#fff" d="M.358 0h2916.67v2916.67H.358z"/>
        <path d="M2897.03 2643.68s2.654-52.988-164.304-127.204l-795.063-381.629s-110.654-68.184-116.6-161.667c0 0-21.208-241.175-7.95-265.025 0 0 107.984-164.975 123.884-321.996 0 0 83.479 13.913 97.395-143.112 0 0 65.592-232.555-19.874-206.717 0 0 31.804-425.354 0-488.958 0 0-38.759-176.971-252.434-290.192-101.7-53.892-264.183-56.092-303.358-55.796h-.05c-39.175-.296-201.658 1.904-303.363 55.796C941.642 370.401 902.88 547.372 902.88 547.372c-31.8 63.604 0 488.958 0 488.958-85.462-25.838-19.871 206.717-19.871 206.717 13.917 157.025 97.396 143.112 97.396 143.112 15.9 157.021 123.883 321.996 123.883 321.996 13.259 23.85-7.95 265.025-7.95 265.025-5.954 93.483-116.6 161.667-116.6 161.667l-795.062 381.629C17.713 2590.692 20.368 2643.68 20.368 2643.68c-29.138 47.708-18.451 272.992-18.451 272.992h2913.56s10.692-225.284-18.45-272.992z"
              fill="#d1d3d4"/>
    </g>
</svg>